<svg id="Layer_1" enable-background="new 0 0 512 512" height="512" viewBox="0 0 512 512" width="512" xmlns="http://www.w3.org/2000/svg"><path d="m219.136 120.618c-6.484-14.254-23.356-20.574-37.607-14.089-.003.001-.006.002-.009.004l-33.479 15.279-43.7-16.927c-7.07-2.749-14.785-2.577-21.726.478s-12.277 8.631-15.024 15.699c-1.241 3.192-1.892 6.541-1.934 9.946-.237 18.375-1.43 96.146-1.664 113.982l-51.014 74.508c-4.288 6.253-5.885 13.801-4.496 21.255 1.389 7.455 5.597 13.922 11.85 18.21 4.896 3.357 10.48 4.968 16.013 4.967 9.052 0 17.958-4.311 23.455-12.325l55.405-80.923c2.137-2.917 3.673-6.162 4.564-9.597l5.874 2.735 1.846 58.636c.25 7.585 3.439 14.619 8.979 19.806 5.539 5.187 12.753 7.906 20.354 7.655 7.585-.249 14.619-3.438 19.806-8.979s7.905-12.769 7.656-20.342l-2.401-76.083c-.363-10.771-6.656-20.281-16.417-24.815l-44.058-20.519.463-26.606 16.401 6.353c7.195 2.917 15.369 2.749 22.443-.469l44.33-20.23c14.252-6.485 20.572-23.355 14.09-37.609zm-20.724 23.049-44.33 20.23c-3.14 1.427-6.632 1.495-9.83.188-.046-.019-.092-.037-.138-.055l-27.153-10.518c-2.438-.944-5.185-.638-7.354.821-2.17 1.459-3.489 3.886-3.535 6.5l-.752 43.265c-.055 3.16 1.756 6.057 4.621 7.391l48.776 22.717c4.267 1.982 7.016 6.138 7.174 10.83l2.4 76.076c.109 3.313-1.078 6.471-3.344 8.892-2.267 2.42-5.339 3.813-8.653 3.923-3.338.085-6.471-1.079-8.892-3.345-2.42-2.267-3.813-5.339-3.922-8.642l-2.001-63.545c-.095-3.018-1.881-5.725-4.618-7l-20.742-9.661c-2.462-1.146-5.335-.967-7.635.479-2.299 1.444-3.708 3.956-3.742 6.671l-.066 5.184c-.031 2.624-.869 5.121-2.423 7.219-.06.079-.117.16-.173.242l-55.479 81.03c-3.863 5.634-11.589 7.072-17.221 3.208-2.728-1.87-4.563-4.692-5.17-7.944-.605-3.253.091-6.548 1.966-9.281l52.384-76.509c.892-1.302 1.378-2.838 1.398-4.417.238-18.477 1.458-98.007 1.695-116.406.019-1.487.304-2.951.848-4.351 1.199-3.085 3.528-5.519 6.559-6.853 1.598-.703 3.29-1.056 4.986-1.056 1.52 0 3.043.283 4.505.852l46.853 18.148c2.01.779 4.25.712 6.211-.182l36.538-16.675c6.225-2.83 13.588-.071 16.418 6.15 2.831 6.223.072 13.589-6.159 16.424zm301.951 91.985c-2.268-1.476-5.128-1.705-7.604-.609l-82.471 36.531c-1.942.86-3.463 2.458-4.226 4.44l-8.523 22.144h-72.446l-8.523-22.144c-.8-2.079-2.432-3.73-4.5-4.556-1.036-.413-2.065-.842-3.091-1.281-2.046-.88-4.367-.864-6.401.04l-79.191 35.173c-2.891 1.284-4.753 4.149-4.753 7.312v172.749c0 4.418 3.582 8 8 8h269.366c4.418 0 8-3.582 8-8v-243.094c0-2.706-1.368-5.229-3.637-6.705zm-12.363 241.799h-253.366v-159.549l69.102-30.691 8.399 21.821c1.188 3.088 4.156 5.126 7.466 5.126h83.433c3.31 0 6.277-2.038 7.466-5.126l9.305-24.173 68.195-30.208zm-297.986-123.042h-68.068c-4.418 0-8 3.582-8 8v123.042c0 4.418 3.582 8 8 8h68.068c4.418 0 8-3.582 8-8v-123.042c0-4.418-3.582-8-8-8zm-8 123.042h-52.068v-107.042h52.068zm-96.689-76.327h-68.067c-4.418 0-8 3.582-8 8v76.327c0 4.418 3.582 8 8 8h68.067c4.418 0 8-3.582 8-8v-76.327c0-4.418-3.582-8-8-8zm-8 76.327h-52.067v-60.327h52.067zm160.05-305.404 16.218 6.243c2.412 8.651 5.856 16.96 10.277 24.791l-7.059 15.891c-1.343 3.025-.686 6.564 1.654 8.904l23.172 23.171c2.341 2.34 5.878 2.999 8.904 1.654l15.897-7.061c7.833 4.42 16.138 7.864 24.783 10.274l6.244 16.223c1.188 3.088 4.156 5.126 7.466 5.126h32.769c3.31 0 6.277-2.038 7.466-5.126l6.242-16.217c8.651-2.412 16.959-5.856 24.791-10.278l15.892 7.059c3.023 1.343 6.562.687 8.904-1.654l23.172-23.172c2.34-2.34 2.997-5.879 1.654-8.904l-7.062-15.898c4.421-7.831 7.863-16.136 10.274-24.782l16.224-6.244c3.088-1.188 5.126-4.156 5.126-7.466v-32.769c0-3.31-2.038-6.277-5.126-7.466l-16.218-6.242c-2.412-8.651-5.855-16.959-10.277-24.792l7.059-15.891c1.343-3.025.686-6.564-1.654-8.904l-23.172-23.171c-2.341-2.34-5.878-2.999-8.904-1.654l-15.897 7.061c-7.832-4.42-16.138-7.864-24.783-10.275l-6.244-16.222c-1.188-3.088-4.156-5.126-7.466-5.126h-32.769c-3.31 0-6.277 2.038-7.466 5.126l-6.244 16.222c-8.646 2.411-16.952 5.854-24.783 10.275l-15.898-7.061c-3.025-1.343-6.565-.686-8.904 1.655l-23.171 23.172c-2.34 2.34-2.997 5.879-1.654 8.904l7.06 15.896c-4.42 7.831-7.863 16.136-10.275 24.785l-16.221 6.244c-3.088 1.188-5.126 4.156-5.126 7.466v32.769c-.001 3.308 2.037 6.276 5.125 7.464zm10.874-34.742 14.935-5.749c2.461-.947 4.298-3.047 4.908-5.613 2.35-9.867 6.243-19.259 11.573-27.915 1.384-2.247 1.57-5.031.5-7.442l-6.501-14.638 15.403-15.404 14.641 6.502c2.41 1.069 5.194.884 7.442-.5 8.657-5.332 18.048-9.225 27.912-11.572 2.565-.611 4.666-2.447 5.613-4.909l5.75-14.937h21.782l5.749 14.936c.947 2.462 3.048 4.298 5.613 4.909 9.863 2.347 19.255 6.241 27.914 11.572 2.246 1.384 5.032 1.57 7.441.499l14.641-6.502 15.403 15.403-6.5 14.633c-1.07 2.412-.884 5.196.5 7.443 5.331 8.656 9.226 18.05 11.574 27.92.61 2.566 2.446 4.667 4.908 5.614l14.933 5.748v21.783l-14.938 5.75c-2.461.947-4.298 3.047-4.908 5.614-2.348 9.864-6.241 19.255-11.572 27.912-1.384 2.247-1.57 5.031-.5 7.442l6.503 14.64-15.403 15.404-14.635-6.5c-2.41-1.071-5.194-.885-7.442.5-8.657 5.332-18.05 9.226-27.919 11.574-2.566.61-4.667 2.447-5.614 4.909l-5.748 14.932h-21.782l-5.75-14.937c-.947-2.461-3.048-4.298-5.614-4.909-9.861-2.347-19.252-6.24-27.912-11.572-2.248-1.383-5.031-1.569-7.441-.499l-14.641 6.502-15.403-15.403 6.5-14.634c1.071-2.411.884-5.196-.5-7.442-5.331-8.655-9.225-18.049-11.574-27.92-.61-2.566-2.446-4.667-4.908-5.614l-14.933-5.748zm113.067 89.863c43.545 0 78.971-35.426 78.971-78.971s-35.426-78.971-78.971-78.971-78.971 35.426-78.971 78.971 35.426 78.971 78.971 78.971zm0-141.941c34.723 0 62.971 28.249 62.971 62.971s-28.248 62.971-62.971 62.971-62.971-28.249-62.971-62.971 28.249-62.971 62.971-62.971zm0 90.315c15.078 0 27.345-12.267 27.345-27.344s-12.267-27.344-27.345-27.344c-15.077 0-27.344 12.267-27.344 27.344s12.267 27.344 27.344 27.344zm0-38.689c6.256 0 11.345 5.089 11.345 11.344s-5.089 11.344-11.345 11.344c-6.255 0-11.344-5.089-11.344-11.344s5.09-11.344 11.344-11.344zm-259.735-33.814c23.294 0 42.245-18.951 42.245-42.245s-18.951-42.245-42.245-42.245-42.244 18.951-42.244 42.244 18.95 42.246 42.244 42.246zm0-68.49c14.472 0 26.245 11.773 26.245 26.245s-11.773 26.245-26.245 26.245c-14.471 0-26.244-11.773-26.244-26.245s11.773-26.245 26.244-26.245z"/></svg>