<svg height="512" viewBox="0 0 48 48" width="512" xmlns="http://www.w3.org/2000/svg"><g id="Line"><path d="m24 10c-7.72 0-14 6.28-14 14s6.28 14 14 14 14-6.28 14-14-6.28-14-14-14zm0 26c-6.617 0-12-5.383-12-12s5.383-12 12-12 12 5.383 12 12-5.383 12-12 12z"/><path d="m29.293 19.293-7.293 7.293-3.294-3.293c-.391-.391-1.023-.391-1.414 0s-.391 1.024 0 1.414l4.001 4c.196.195.452.293.707.293s.512-.098.707-.293l8-8c.391-.391.391-1.023 0-1.414s-1.023-.391-1.414 0z"/><path d="m43.87 20.747c-.412-.305-.54-.908-.267-1.342.977-1.554 2.396-4.818-2.49-6.015-.498-.122-.867-.637-.761-1.137.469-2.194-.188-5.38-4.604-4.604-.503.088-1.038-.258-1.137-.761-.331-1.682-1.757-5.089-6.014-2.491-.438.267-1.136.122-1.342-.268-.661-1.249-3.556-4.129-6.51 0-.298.417-.983.524-1.342.267-1.938-1.388-5.069-1.735-6.015 2.49-.109.485-.625.857-1.138.76-1.694-.322-5.412-.216-4.601 4.604.085.505-.254 1.062-.76 1.138-1.973.295-5.015 1.88-2.492 6.014.267.437.19 1.111-.267 1.342-1.751.885-3.756 4.033 0 6.513.427.282.534.889.267 1.326-2.523 4.134.519 5.718 2.492 6.014.507.076.845.633.76 1.138-.811 4.82 2.907 4.926 4.603 4.603.513-.098 1.029.275 1.138.76.946 4.226 4.077 3.878 6.015 2.49.359-.257 1.044-.15 1.342.267 2.954 4.13 5.849 1.25 6.51 0 .206-.389.904-.535 1.342-.268 4.257 2.598 5.683-.809 6.014-2.491.099-.503.634-.849 1.137-.761 4.416.776 5.072-2.41 4.604-4.604-.107-.5.263-1.015.761-1.137 4.887-1.197 3.468-4.461 2.49-6.015-.273-.434-.155-1.05.265-1.34 1.306-.903 4.13-3.436 0-6.492zm-1.428 9.964c.34.547.13 1.299-.644 1.554-1.418.468-4.031.853-3.334 4.992.133.787-.288 1.258-1.19 1.189-1.372-.105-4.197-.66-4.99 3.335-.157.789-.93.96-1.554.645-2.692-1.359-3.769-1.533-5.887 1.171-.405.517-1.249.495-1.683 0-1.138-1.297-2.427-3.291-5.888-1.17-.602.369-1.288.084-1.554-.644-.691-1.896-.895-3.917-4.991-3.334-.632.09-1.302-.338-1.189-1.189.215-1.628.462-4.242-3.336-4.992-.586-.116-1.044-.898-.644-1.554 1.517-2.481 1.307-4.033-1.193-5.898-.282-.21-.741-1.113.022-1.659 2.435-1.742 2.688-3.405 1.171-5.887-.401-.656.058-1.439.644-1.554 3.798-.75 3.551-3.364 3.336-4.992-.113-.851.558-1.279 1.189-1.189 4.096.582 4.3-1.438 4.991-3.334.265-.729.952-1.013 1.554-.644 3.462 2.121 4.751.127 5.888-1.17.434-.495 1.277-.517 1.683 0 2.118 2.704 3.195 2.53 5.887 1.171.624-.315 1.397-.144 1.554.645.793 3.995 3.618 3.44 4.99 3.335.903-.069 1.323.402 1.19 1.189-.697 4.14 1.916 4.524 3.334 4.992.774.255.984 1.008.644 1.554-2.224 3.572.126 4.992 1.171 5.888.408.35.643 1.177.094 1.605-1.249.864-3.489 2.373-1.265 5.945z"/></g></svg>