<svg width="20" height="20" viewBox="0 0 20 20" fill="none" xmlns="http://www.w3.org/2000/svg">
<path d="M14.5 1H5.5C3.01472 1 1 3.01472 1 5.5V14.5C1 16.9853 3.01472 19 5.5 19H14.5C16.9853 19 19 16.9853 19 14.5V5.5C19 3.01472 16.9853 1 14.5 1Z" stroke="#C6C6C6" stroke-width="1.5" stroke-linecap="round" stroke-linejoin="round"/>
<path d="M13.5999 9.43278C13.711 10.1818 13.583 10.9468 13.2343 11.6189C12.8855 12.291 12.3337 12.8361 11.6574 13.1765C10.981 13.5169 10.2145 13.6354 9.46692 13.5151C8.71932 13.3948 8.02869 13.0419 7.49326 12.5064C6.95783 11.971 6.60487 11.2804 6.48457 10.5328C6.36427 9.78518 6.48277 9.01869 6.8232 8.34232C7.16364 7.66595 7.70867 7.11415 8.38079 6.7654C9.05291 6.41665 9.81789 6.28871 10.5669 6.39978C11.3309 6.51308 12.0383 6.8691 12.5844 7.41526C13.1306 7.96142 13.4866 8.66875 13.5999 9.43278Z" stroke="#C6C6C6" stroke-width="1.5" stroke-linecap="round" stroke-linejoin="round"/>
<path d="M14.9501 5.05005H14.9588" stroke="#C6C6C6" stroke-width="1.5" stroke-linecap="round" stroke-linejoin="round"/>
</svg>
