<svg width="161" height="161" viewBox="0 0 161 161" fill="none" xmlns="http://www.w3.org/2000/svg">
<circle cx="80.5" cy="80.5" r="80.5" fill="white"/>
<path d="M64.7546 72.766V68.0199H73.0231V89.8104H67.7098V72.766H64.7546ZM87.2907 73.9003C87.1315 73.164 86.8529 72.6168 86.4549 72.2586C86.0569 71.8805 85.4897 71.6914 84.7534 71.6914C83.6191 71.6914 82.8032 72.1889 82.3057 73.1839C81.8082 74.159 81.5495 75.7112 81.5296 77.8405C81.9674 77.144 82.5943 76.5968 83.4102 76.1988C84.246 75.8008 85.1614 75.6018 86.1564 75.6018C88.1066 75.6018 89.6687 76.2187 90.8428 77.4525C92.0368 78.6863 92.6338 80.4076 92.6338 82.6165C92.6338 84.0692 92.3353 85.3428 91.7383 86.4373C91.1612 87.5318 90.3055 88.3875 89.1712 89.0044C88.0568 89.6213 86.7335 89.9298 85.2012 89.9298C82.1366 89.9298 80.0073 88.9746 78.8133 87.0642C77.6193 85.1339 77.0223 82.3678 77.0223 78.7659C77.0223 74.9849 77.6491 72.179 78.9028 70.3482C80.1764 68.4975 82.2062 67.5721 84.9922 67.5721C86.4847 67.5721 87.7384 67.8706 88.7533 68.4676C89.7881 69.0447 90.5642 69.8109 91.0816 70.7661C91.6189 71.7213 91.9373 72.766 92.0368 73.9003H87.2907ZM84.9325 79.6315C84.0768 79.6315 83.3604 79.8902 82.7833 80.4076C82.2261 80.9051 81.9475 81.6215 81.9475 82.5568C81.9475 83.512 82.2062 84.2583 82.7236 84.7956C83.2609 85.3329 84.0171 85.6015 84.9922 85.6015C85.8678 85.6015 86.5544 85.3428 87.0519 84.8254C87.5693 84.2881 87.828 83.5618 87.828 82.6464C87.828 81.7111 87.5792 80.9748 87.0817 80.4375C86.5842 79.9002 85.8678 79.6315 84.9325 79.6315Z" fill="#282A39"/>
<circle cx="79.8686" cy="80.1073" r="46.0715" stroke="#F9365F" stroke-width="0.482424" stroke-dasharray="2.41 2.41"/>
<path d="M21.5274 71.3547L21.2436 72.8083L17.288 71.9167C17.1789 71.8921 17.0452 71.8604 16.8868 71.8214C16.7253 71.7817 16.561 71.7398 16.3939 71.6956C16.2237 71.6507 16.0707 71.6096 15.9347 71.5724C15.9685 71.6161 16.0249 71.7024 16.1038 71.8315C16.1802 71.9568 16.2485 72.0737 16.3087 72.1822L16.7856 73.1148L15.7791 73.6197L14.4583 71.0088L14.6916 69.814L21.5274 71.3547Z" fill="#282A39"/>
<path d="M19.4158 67.0008C19.0362 66.8666 18.6696 66.7065 18.3159 66.5205C17.9601 66.3304 17.6395 66.1071 17.3542 65.8505C17.0658 65.5928 16.8339 65.2924 16.6585 64.9494C16.4801 64.6053 16.3785 64.2121 16.3536 63.7699C16.3257 63.3267 16.3969 62.827 16.5672 62.2709C16.6074 62.1396 16.6602 61.9889 16.7256 61.819C16.7889 61.645 16.8504 61.5042 16.91 61.3967L18.0262 61.7912C17.9617 61.9038 17.9004 62.0278 17.8423 62.163C17.7821 62.2941 17.731 62.4284 17.6889 62.5659C17.5186 63.1219 17.474 63.5836 17.5552 63.9509C17.6373 64.3151 17.8144 64.6147 18.0863 64.8497C18.3562 65.0805 18.6927 65.279 19.0958 65.4452L19.1141 65.3857C18.9927 65.2479 18.8944 65.0947 18.8192 64.9259C18.7449 64.754 18.7032 64.5632 18.694 64.3534C18.6818 64.1426 18.714 63.9119 18.7907 63.6613C18.9105 63.2703 19.0972 62.9604 19.3508 62.7318C19.6014 62.5021 19.9057 62.3642 20.2638 62.3181C20.6218 62.2719 21.0237 62.3277 21.4696 62.4853C21.9456 62.6535 22.3268 62.8915 22.6131 63.1993C22.8995 63.5071 23.0822 63.8646 23.1612 64.2717C23.2381 64.6747 23.205 65.11 23.0618 65.5774C22.957 65.9196 22.802 66.2187 22.5968 66.4746C22.3886 66.7294 22.1313 66.9263 21.825 67.0652C21.5187 67.2041 21.1656 67.2723 20.7658 67.2697C20.3629 67.2661 19.9129 67.1765 19.4158 67.0008ZM21.9372 65.2104C22.0224 64.9323 21.9982 64.6732 21.8647 64.4331C21.7313 64.1929 21.4657 64.0025 21.0681 63.8619C20.7457 63.748 20.4693 63.7349 20.2387 63.8227C20.0061 63.9064 19.843 64.101 19.7494 64.4065C19.6858 64.6143 19.6764 64.8141 19.7211 65.006C19.7638 65.1938 19.8428 65.3555 19.9582 65.4911C20.0706 65.6256 20.2006 65.719 20.3482 65.7711C20.5019 65.8254 20.6606 65.8578 20.8243 65.8683C20.988 65.8788 21.1447 65.8631 21.2945 65.8212C21.4442 65.7793 21.5759 65.709 21.6895 65.6104C21.8041 65.5087 21.8867 65.3754 21.9372 65.2104Z" fill="#282A39"/>
<path d="M26.1118 52.5024C26.4739 52.7058 26.7447 52.9732 26.924 53.3044C27.1034 53.6357 27.1809 54.0158 27.1566 54.4448C27.1337 54.871 27.002 55.3312 26.7615 55.8253C26.6553 56.0437 26.5372 56.2499 26.4073 56.444C26.2787 56.6352 26.1412 56.8122 25.9946 56.975C25.8466 57.1333 25.6903 57.276 25.5256 57.403L24.3221 56.727C24.5956 56.5001 24.8623 56.2548 25.1219 55.9909C25.3816 55.727 25.5883 55.437 25.7421 55.121C25.8484 54.9026 25.9058 54.7117 25.9144 54.5482C25.9244 54.3819 25.8953 54.2412 25.8272 54.1261C25.759 54.011 25.6623 53.9182 25.5369 53.8478C25.3837 53.7617 25.2269 53.7413 25.0665 53.7866C24.9061 53.8318 24.7331 53.9213 24.5475 54.0548C24.3633 54.1855 24.1603 54.3367 23.9384 54.5084C23.8002 54.6173 23.6419 54.7314 23.4633 54.8506C23.2819 54.9682 23.0838 55.0655 22.869 55.1424C22.6542 55.2193 22.4234 55.2525 22.1767 55.2419C21.9286 55.2269 21.6652 55.1412 21.3866 54.9847C21.0217 54.7797 20.7516 54.5182 20.5764 54.2003C20.4012 53.8824 20.323 53.5256 20.3417 53.13C20.359 52.7299 20.4739 52.3116 20.6864 51.8748C20.8458 51.5473 21.0351 51.2567 21.2543 51.003C21.4721 50.7449 21.7297 50.4926 22.027 50.2462L22.8243 51.2429C22.5689 51.4689 22.3546 51.6796 22.1815 51.8751C22.0056 52.0689 21.8596 52.2851 21.7435 52.5236C21.6624 52.6902 21.6197 52.8473 21.6153 52.9948C21.6081 53.1408 21.6372 53.2706 21.7026 53.3841C21.7652 53.4961 21.8577 53.5865 21.9803 53.6554C22.1252 53.7367 22.2687 53.7625 22.411 53.7326C22.5518 53.6983 22.7108 53.6194 22.888 53.4958C23.0667 53.3693 23.2816 53.2083 23.5328 53.0128C23.837 52.7739 24.1252 52.5864 24.3972 52.4502C24.6678 52.3095 24.9419 52.2385 25.2193 52.237C25.4939 52.2339 25.7914 52.3224 26.1118 52.5024Z" fill="#282A39"/>
<path d="M26.0914 42.6537L29.7644 45.3122C30.1552 45.5951 30.4517 45.9415 30.6538 46.3515C30.8549 46.7568 30.9328 47.2088 30.8875 47.7072C30.8438 48.203 30.6489 48.7271 30.3026 49.2793C29.8104 50.0644 29.2437 50.5241 28.6026 50.6583C27.9615 50.7925 27.3252 50.631 26.6936 50.1739L23.0362 47.5267L23.8229 46.2719L27.2979 48.787C27.7664 49.1261 28.1579 49.2639 28.4725 49.2003C28.787 49.1368 29.0674 48.9087 29.3135 48.5162C29.4866 48.24 29.5813 47.9839 29.5977 47.7478C29.6157 47.509 29.5557 47.2805 29.4177 47.0626C29.2796 46.8446 29.0644 46.6297 28.7719 46.418L25.3047 43.9085L26.0914 42.6537Z" fill="#282A39"/>
<path d="M30.5369 38.6696C30.3603 38.8925 30.2448 39.1281 30.1904 39.3764C30.1357 39.62 30.1383 39.8707 30.1983 40.1286C30.2602 40.384 30.3759 40.641 30.5452 40.8995C30.7145 41.158 30.9347 41.4112 31.2058 41.6592C31.5713 41.9935 31.9214 42.2317 32.2561 42.3737C32.5905 42.5111 32.9065 42.5409 33.2039 42.4631C33.4991 42.3832 33.7736 42.183 34.0276 41.8624C34.2042 41.6395 34.3573 41.395 34.4867 41.129C34.6181 40.8605 34.7444 40.5548 34.8655 40.212L35.7851 41.0531C35.6869 41.3823 35.5646 41.6829 35.4182 41.955C35.2741 42.2293 35.0859 42.5129 34.8538 42.8059C34.4053 43.3719 33.9266 43.7375 33.4176 43.9026C32.9082 44.063 32.3861 44.0497 31.851 43.8627C31.3137 43.6736 30.7797 43.3364 30.2492 42.8512C29.8578 42.4932 29.5441 42.109 29.308 41.6987C29.072 41.2884 28.9212 40.8654 28.8557 40.4297C28.7902 39.994 28.8196 39.5566 28.9439 39.1174C29.0682 38.6782 29.2951 38.2507 29.6245 37.835C29.8408 37.562 30.0901 37.3192 30.3724 37.1066C30.6543 36.8893 30.9511 36.7072 31.2627 36.5603L31.8563 37.7512C31.6016 37.8724 31.3577 38.0057 31.1247 38.151C30.8916 38.2964 30.6957 38.4692 30.5369 38.6696Z" fill="#282A39"/>
<path d="M35.143 33.5411C34.9451 33.7454 34.8068 33.9684 34.7279 34.2101C34.6491 34.4471 34.6267 34.697 34.6606 34.9597C34.6968 35.2201 34.7861 35.4874 34.9287 35.7616C35.0713 36.0358 35.265 36.3099 35.5099 36.5838C35.84 36.9531 36.1645 37.2251 36.4832 37.3999C36.8021 37.5701 37.1133 37.6313 37.4169 37.5835C37.7184 37.5334 38.0115 37.3615 38.2961 37.0678C38.494 36.8635 38.6706 36.6355 38.8258 36.3836C38.9834 36.1294 39.1394 35.8378 39.2941 35.5087L40.1247 36.4377C39.9942 36.7556 39.8426 37.0426 39.6698 37.2988C39.4991 37.5574 39.2837 37.821 39.0236 38.0895C38.5211 38.6081 38.0085 38.9242 37.4858 39.0377C36.9632 39.1465 36.4452 39.0812 35.9318 38.8416C35.4162 38.5997 34.9188 38.2107 34.4396 37.6748C34.0861 37.2794 33.8124 36.8657 33.6186 36.4337C33.4247 36.0017 33.317 35.5656 33.2953 35.1253C33.2736 34.6851 33.3465 34.2526 33.514 33.8278C33.6814 33.4031 33.9497 33.0002 34.3188 32.6193C34.5612 32.3691 34.8333 32.1523 35.1353 31.9689C35.4374 31.7808 35.7507 31.6292 36.0753 31.514L36.5468 32.7587C36.2814 32.8539 36.0256 32.9623 35.7793 33.0837C35.533 33.2051 35.3209 33.3575 35.143 33.5411Z" fill="#282A39"/>
<path d="M44.4877 32.9999L41.3838 35.5791L37.29 29.8919L40.3939 27.3127L41.1052 28.3008L39.144 29.9304L40.0429 31.1791L41.8676 29.6628L42.5788 30.6508L40.7541 32.1671L41.8097 33.6337L43.7708 32.004L44.4877 32.9999Z" fill="#282A39"/>
<path d="M49.3632 27.1657C49.57 27.5259 49.6658 27.8946 49.6507 28.2719C49.6356 28.6491 49.5083 29.0166 49.2687 29.3742C49.0318 29.7301 48.6843 30.0599 48.2262 30.3635C48.0237 30.4976 47.8173 30.6153 47.607 30.7164C47.3993 30.8158 47.1911 30.8983 46.9825 30.9639C46.7748 31.0249 46.5681 31.0683 46.3621 31.0938L45.6749 29.8966C46.0251 29.8405 46.3788 29.7649 46.736 29.6698C47.0931 29.5746 47.4182 29.43 47.7112 29.2358C47.9136 29.1017 48.0602 28.9663 48.1509 28.8297C48.2443 28.6913 48.2911 28.5551 48.2914 28.421C48.2916 28.287 48.256 28.1576 48.1844 28.0329C48.0969 27.8805 47.9728 27.7829 47.8122 27.7401C47.6517 27.6973 47.4578 27.6862 47.2305 27.7067C47.006 27.7254 46.7548 27.7523 46.477 27.7872C46.303 27.8107 46.109 27.8283 45.8952 27.8399C45.6797 27.8489 45.4602 27.8317 45.2369 27.7884C45.0135 27.7452 44.7987 27.6561 44.5926 27.5211C44.3875 27.3816 44.2054 27.1733 44.0463 26.8962C43.8379 26.5331 43.7397 26.1698 43.7515 25.8062C43.7634 25.4426 43.8782 25.0949 44.0959 24.7632C44.3147 24.4269 44.6265 24.1247 45.0314 23.8564C45.335 23.6552 45.6455 23.5011 45.9628 23.3941C46.2811 23.2826 46.6306 23.1964 47.0111 23.1355L47.1866 24.402C46.8524 24.4667 46.5612 24.5391 46.3132 24.6194C46.0635 24.6968 45.8281 24.8088 45.607 24.9553C45.4525 25.0577 45.3358 25.1714 45.2568 25.2964C45.1763 25.4187 45.135 25.5454 45.1332 25.6767C45.1298 25.8052 45.163 25.9304 45.233 26.0524C45.3157 26.1965 45.4257 26.2919 45.5629 26.3387C45.7011 26.381 45.8777 26.394 46.0927 26.3778C46.3103 26.3598 46.5767 26.3306 46.8917 26.2902C47.2743 26.2394 47.617 26.2246 47.9197 26.2459C48.2234 26.2626 48.4946 26.3411 48.7332 26.4814C48.9702 26.6189 49.1802 26.847 49.3632 27.1657Z" fill="#282A39"/>
<path d="M54.8005 24.1783C54.9727 24.5563 55.0333 24.9317 54.9823 25.3045C54.9312 25.6774 54.7691 26.0294 54.4957 26.3605C54.2252 26.6902 53.8468 26.9829 53.3603 27.2387C53.1454 27.3517 52.9281 27.448 52.7084 27.5274C52.4915 27.6054 52.2757 27.6666 52.0611 27.711C51.8479 27.751 51.6373 27.7735 51.4292 27.7784L50.857 26.5222C51.2121 26.5013 51.5725 26.4613 51.9382 26.4024C52.304 26.3434 52.6424 26.2321 52.9535 26.0685C53.1685 25.9555 53.3277 25.8357 53.4313 25.7092C53.5378 25.5811 53.5975 25.4506 53.6105 25.3176C53.6236 25.1846 53.6003 25.0527 53.5407 24.9218C53.4678 24.7619 53.3533 24.6527 53.197 24.5943C53.0407 24.5359 52.8481 24.5056 52.6192 24.5034C52.3932 24.4997 52.1398 24.5014 51.8591 24.5085C51.6831 24.5145 51.4877 24.5127 51.273 24.5031C51.0569 24.4905 50.8394 24.4517 50.6205 24.3866C50.4015 24.3215 50.1955 24.2118 50.0025 24.0574C49.811 23.8986 49.649 23.6738 49.5166 23.383C49.343 23.0021 49.2795 22.6318 49.3261 22.2721C49.3726 21.9125 49.5203 21.5789 49.7694 21.2713C50.0199 20.9594 50.3601 20.6904 50.79 20.4643C51.1124 20.2948 51.4371 20.1727 51.7642 20.098C52.0927 20.019 52.4499 19.9681 52.8357 19.9455L52.8903 21.2197C52.5504 21.2507 52.2527 21.2937 51.9973 21.3487C51.7406 21.4008 51.4949 21.4885 51.2601 21.612C51.0961 21.6982 50.9687 21.7995 50.8779 21.9157C50.7858 22.029 50.7326 22.1507 50.7182 22.2808C50.7025 22.408 50.7238 22.5355 50.7821 22.6635C50.851 22.8147 50.9517 22.9203 51.0842 22.9804C51.2182 23.0361 51.3933 23.0665 51.6096 23.0718C51.8286 23.0756 52.0974 23.073 52.4159 23.0641C52.8028 23.0517 53.1464 23.0711 53.4467 23.1222C53.7484 23.169 54.0117 23.2738 54.2367 23.4367C54.4603 23.5967 54.6482 23.8438 54.8005 24.1783Z" fill="#282A39"/>
<path d="M64.0597 20.6219C64.1739 21.0213 64.1775 21.4 64.0707 21.758C63.9638 22.1161 63.7497 22.4355 63.4282 22.7164C63.1097 22.9964 62.6896 23.2224 62.1676 23.3947C61.937 23.4708 61.7066 23.53 61.4763 23.5724C61.249 23.6138 61.0254 23.6388 60.8054 23.6475C60.5876 23.6522 60.3749 23.64 60.1674 23.611L59.788 22.2838C60.144 22.321 60.5081 22.3403 60.8805 22.3418C61.2528 22.3433 61.6059 22.289 61.9396 22.1789C62.1702 22.1028 62.3466 22.011 62.4686 21.9035C62.5936 21.795 62.6726 21.6764 62.7056 21.5479C62.7386 21.4193 62.7353 21.2859 62.6958 21.1477C62.6475 20.9787 62.5501 20.8528 62.4036 20.7701C62.2571 20.6873 62.0702 20.6262 61.8432 20.5868C61.6191 20.5465 61.367 20.5069 61.087 20.4682C60.9112 20.4456 60.7173 20.412 60.5054 20.3677C60.2926 20.3202 60.0823 20.2467 59.8745 20.1472C59.6668 20.0477 59.4786 19.9063 59.3101 19.7233C59.1436 19.5361 59.0165 19.2889 58.9287 18.9817C58.8137 18.5792 58.8063 18.2051 58.9067 17.8593C59.0071 17.5135 59.2042 17.2098 59.498 16.9481C59.7939 16.6823 60.1725 16.4733 60.6337 16.3211C60.9796 16.207 61.3207 16.1398 61.6569 16.1196C61.9953 16.0953 62.3579 16.1034 62.7447 16.1439L62.6071 17.4047C62.2646 17.3799 61.9623 17.3737 61.7002 17.3863C61.4373 17.3957 61.1799 17.442 60.9281 17.5251C60.7521 17.5832 60.6102 17.6619 60.5025 17.7614C60.3939 17.8577 60.3227 17.9686 60.2888 18.0941C60.2541 18.2165 60.256 18.3453 60.2946 18.4805C60.3403 18.6403 60.4245 18.7604 60.5471 18.841C60.6719 18.9175 60.8414 18.9759 61.0554 19.0162C61.2726 19.0555 61.54 19.0966 61.8578 19.1397C62.2442 19.1904 62.5827 19.2652 62.8734 19.3643C63.1662 19.4593 63.4121 19.6051 63.6111 19.8017C63.8092 19.9952 63.9587 20.2686 64.0597 20.6219Z" fill="#282A39"/>
<path d="M70.7179 13.954L71.504 18.4195C71.5876 18.8947 71.5584 19.3456 71.4161 19.7721C71.2765 20.1949 71.015 20.561 70.6316 20.8703C70.2513 21.179 69.7418 21.3982 69.103 21.5281C68.1949 21.7126 67.4619 21.6203 66.904 21.2513C66.346 20.8823 65.9995 20.3139 65.8643 19.546L65.0816 15.0994L66.5329 14.8045L67.2766 19.0292C67.3769 19.5988 67.5631 19.9749 67.8353 20.1576C68.1074 20.3402 68.4705 20.3854 68.9246 20.2931C69.2439 20.2282 69.4926 20.1207 69.6705 19.9704C69.8515 19.8196 69.9687 19.6197 70.0222 19.3709C70.0757 19.1221 70.0712 18.8199 70.0086 18.4643L69.2666 14.249L70.7179 13.954Z" fill="#282A39"/>
<path d="M76.3516 14.5683C76.0682 14.5911 75.8204 14.667 75.6084 14.7962C75.3993 14.922 75.2272 15.0944 75.0919 15.3137C74.9597 15.5326 74.8656 15.7918 74.8096 16.0912C74.7535 16.3905 74.7382 16.7235 74.7637 17.0901C74.798 17.5842 74.8878 18.0017 75.0332 18.3426C75.1816 18.6801 75.3912 18.931 75.662 19.0951C75.9326 19.2562 76.2718 19.3203 76.6795 19.2876C76.9629 19.2649 77.2442 19.2103 77.5232 19.1238C77.8055 19.037 78.1097 18.9213 78.4359 18.7765L78.5223 20.0197C78.2222 20.172 77.9243 20.2872 77.6287 20.3654C77.3333 20.4468 76.9993 20.5024 76.6266 20.5323C75.9068 20.5901 75.3041 20.4893 74.8185 20.2302C74.3358 19.9676 73.9644 19.5775 73.7042 19.0598C73.4439 18.539 73.2888 17.92 73.2389 17.2028C73.2022 16.6736 73.2402 16.1834 73.353 15.732C73.4657 15.2806 73.6495 14.8828 73.9042 14.5386C74.159 14.1945 74.4841 13.9184 74.8796 13.7104C75.2751 13.5023 75.7372 13.3771 76.2659 13.3347C76.6131 13.3069 76.9634 13.3237 77.3168 13.3851C77.6731 13.4431 78.0158 13.5358 78.345 13.6632L77.9509 14.9065C77.6811 14.8031 77.4108 14.7158 77.14 14.6446C76.8692 14.5733 76.6064 14.5479 76.3516 14.5683Z" fill="#282A39"/>
<path d="M82.9748 14.5273C82.6905 14.5195 82.4368 14.5684 82.2137 14.6741C81.9939 14.7767 81.8065 14.9297 81.6514 15.1332C81.4995 15.3368 81.3817 15.5845 81.298 15.8762C81.2143 16.168 81.1681 16.4976 81.1592 16.8649C81.1474 17.36 81.1979 17.785 81.3109 18.1397C81.4271 18.4913 81.6124 18.7634 81.8667 18.9558C82.121 19.145 82.4526 19.2453 82.8615 19.2566C83.1457 19.2645 83.4308 19.2404 83.7166 19.1844C84.0056 19.1284 84.3192 19.046 84.6574 18.9371L84.6275 20.1829C84.3146 20.3021 84.0074 20.3847 83.7059 20.4307C83.4043 20.4799 83.0666 20.4993 82.6929 20.489C81.971 20.469 81.3805 20.3041 80.9213 19.9941C80.4653 19.681 80.132 19.2531 79.9213 18.7102C79.7106 18.1642 79.6139 17.5318 79.6311 16.8131C79.6438 16.2828 79.7273 15.7992 79.8816 15.3624C80.0359 14.9255 80.2559 14.5496 80.5415 14.2347C80.8271 13.9197 81.1764 13.6801 81.5895 13.5157C82.0025 13.3513 82.4742 13.2764 83.0044 13.2911C83.3525 13.3007 83.6996 13.3551 84.0456 13.4542C84.3949 13.5501 84.7274 13.6792 85.0432 13.8414L84.5351 15.0356C84.2762 14.9038 84.0153 14.7879 83.7524 14.6879C83.4895 14.5879 83.2303 14.5344 82.9748 14.5273Z" fill="#282A39"/>
<path d="M89.9236 21.1937L85.9288 20.6206L86.7931 13.6668L90.7878 14.2399L90.6377 15.4481L88.1137 15.0859L87.9239 16.6127L90.2724 16.9497L90.1222 18.1578L87.7738 17.8208L87.5509 19.614L90.0749 19.9761L89.9236 21.1937Z" fill="#282A39"/>
<path d="M97.1603 20.9462C97.0686 21.3513 96.8916 21.6781 96.6291 21.9264C96.3667 22.1747 96.0301 22.3311 95.6194 22.3955C95.2117 22.4607 94.742 22.4238 94.2102 22.285C93.9753 22.2236 93.7485 22.1479 93.5298 22.0578C93.3143 21.9685 93.1096 21.8672 92.9159 21.7539C92.7259 21.6383 92.5484 21.5111 92.3834 21.3723L92.6879 20.0259C92.977 20.2533 93.2816 20.4698 93.6018 20.6755C93.922 20.8812 94.2521 21.0285 94.5922 21.1173C94.8272 21.1786 95.0228 21.1967 95.1791 21.1715C95.3385 21.1471 95.463 21.0889 95.5526 20.9968C95.6422 20.9046 95.7029 20.7884 95.7346 20.6482C95.7734 20.4768 95.7493 20.3154 95.6624 20.164C95.5755 20.0125 95.4436 19.8576 95.2666 19.6992C95.0927 19.5415 94.8943 19.3693 94.6714 19.1823C94.5306 19.0664 94.3795 18.9312 94.2179 18.7768C94.0571 18.6193 93.9108 18.4408 93.7791 18.2414C93.6474 18.042 93.5525 17.8175 93.4943 17.5679C93.44 17.3161 93.448 17.0344 93.5185 16.7227C93.6109 16.3144 93.7826 15.9896 94.0336 15.7482C94.2847 15.5068 94.5991 15.3545 94.9768 15.2914C95.3583 15.226 95.784 15.2546 96.254 15.3774C96.6064 15.4694 96.9323 15.599 97.2317 15.7663C97.5349 15.9313 97.8436 16.1373 98.1577 16.3844L97.4391 17.3899C97.1558 17.1806 96.8982 17.0094 96.6664 16.8763C96.4352 16.74 96.1914 16.6384 95.9348 16.5714C95.7555 16.5245 95.5957 16.5142 95.4556 16.5403C95.3161 16.5633 95.202 16.6193 95.1131 16.7083C95.0249 16.7942 94.9653 16.9057 94.9343 17.0429C94.8976 17.2049 94.913 17.3542 94.9803 17.4906C95.0515 17.6247 95.1698 17.7678 95.3351 17.9199C95.5035 18.0728 95.7144 18.2549 95.9678 18.4663C96.2767 18.7219 96.5329 18.972 96.7362 19.2165C96.9434 19.4587 97.0859 19.7187 97.1639 19.9965C97.2425 20.2712 97.2413 20.5878 97.1603 20.9462Z" fill="#282A39"/>
<path d="M102.898 23.0651C102.77 23.4602 102.564 23.7682 102.281 23.9893C101.997 24.2103 101.649 24.3319 101.236 24.3541C100.825 24.3775 100.363 24.2926 99.8484 24.0996C99.621 24.0143 99.4031 23.9155 99.1946 23.8031C98.9891 23.6919 98.7954 23.5699 98.6138 23.4369C98.4361 23.3021 98.2718 23.1569 98.1209 23.0015L98.5475 21.6887C98.8132 21.9452 99.0954 22.1925 99.3939 22.4307C99.6924 22.6688 100.006 22.8496 100.335 22.9731C100.563 23.0583 100.755 23.0964 100.912 23.0873C101.073 23.0792 101.202 23.0338 101.299 22.951C101.396 22.8683 101.467 22.7585 101.512 22.6217C101.566 22.4546 101.557 22.291 101.485 22.131C101.413 21.9709 101.296 21.8028 101.135 21.6265C100.978 21.4513 100.797 21.2591 100.593 21.0496C100.464 20.9195 100.327 20.769 100.181 20.5984C100.036 20.4247 99.9072 20.2316 99.795 20.019C99.6828 19.8065 99.6094 19.5727 99.5748 19.3176C99.5442 19.0607 99.5783 18.7802 99.677 18.4763C99.8064 18.0783 100.007 17.7716 100.278 17.5563C100.549 17.341 100.875 17.2212 101.256 17.1969C101.64 17.1707 102.06 17.2428 102.515 17.4134C102.856 17.5414 103.167 17.7042 103.448 17.9018C103.734 18.0976 104.021 18.3348 104.31 18.6136L103.504 19.5438C103.242 19.3058 103.003 19.1085 102.785 18.9519C102.568 18.7922 102.336 18.6658 102.088 18.5726C101.914 18.5075 101.757 18.4809 101.615 18.4926C101.475 18.5013 101.356 18.5455 101.26 18.6252C101.164 18.7019 101.095 18.8072 101.052 18.9409C101 19.0989 101.002 19.2494 101.056 19.3925C101.114 19.5337 101.218 19.6886 101.368 19.8573C101.521 20.0272 101.713 20.2306 101.945 20.4676C102.228 20.7544 102.459 21.0302 102.638 21.2951C102.821 21.5581 102.938 21.8323 102.99 22.1176C103.042 22.3998 103.012 22.7157 102.898 23.0651Z" fill="#282A39"/>
<path d="M105.244 26.3677L103.929 25.7299L106.643 19.2694L110.257 21.022L109.785 22.1444L107.487 21.0297L106.787 22.6956L108.926 23.7329L108.456 24.8509L106.317 23.8136L105.244 26.3677Z" fill="#282A39"/>
<path d="M116.381 24.7902L114.227 28.7801C113.998 29.2047 113.7 29.5319 113.333 29.7618C112.97 29.9904 112.552 30.0905 112.078 30.0621C111.607 30.0352 111.095 29.8495 110.541 29.5047C109.755 29.0147 109.268 28.4331 109.08 27.7601C108.893 27.0871 108.984 26.4076 109.354 25.7215L111.499 21.7484L112.756 22.5317L110.718 26.3065C110.444 26.8155 110.351 27.2351 110.441 27.5654C110.531 27.8957 110.773 28.1834 111.166 28.4284C111.442 28.6008 111.693 28.691 111.917 28.699C112.143 28.7088 112.353 28.6364 112.545 28.4818C112.737 28.3272 112.919 28.0911 113.09 27.7734L115.124 24.0069L116.381 24.7902Z" fill="#282A39"/>
<path d="M114.579 32.2342L118.459 26.3993L119.637 27.304L116.437 32.1173L118.691 33.848L118.012 34.8697L114.579 32.2342Z" fill="#282A39"/>
<path d="M118.839 36.0196L123.082 30.4433L124.198 31.4239L120.698 36.0238L122.833 37.8997L122.09 38.8761L118.839 36.0196Z" fill="#282A39"/>
<path d="M126.078 37.3016L129.027 36.2244L130.131 37.3831L125.649 38.8681L123.815 40.8864L122.796 39.8179L124.598 37.835L125.905 32.9494L127.016 34.1151L126.078 37.3016Z" fill="#282A39"/>
<path d="M133.075 41.6986L133.969 43.0261L132.155 45.7159C132.097 45.8013 132.035 45.8836 131.97 45.963C131.904 46.0424 131.834 46.1211 131.76 46.1991C131.685 46.2771 131.606 46.3553 131.52 46.4339L131.536 46.4578C131.683 46.3677 131.825 46.2898 131.961 46.2241C132.099 46.1611 132.241 46.1056 132.385 46.0577L135.319 45.0294L136.195 46.3291L130.158 48.1602C129.789 48.2738 129.445 48.3147 129.128 48.283C128.808 48.2532 128.518 48.1573 128.259 47.9953C128.002 47.836 127.778 47.6146 127.587 47.3311C127.494 47.1933 127.421 47.0682 127.368 46.9557C127.313 46.8452 127.269 46.7483 127.236 46.665L128.151 45.9528C128.176 46.0182 128.212 46.0973 128.259 46.1899C128.306 46.2826 128.361 46.3752 128.424 46.468C128.538 46.6376 128.67 46.7568 128.82 46.8257C128.971 46.8947 129.131 46.9251 129.303 46.917C129.472 46.9108 129.64 46.8786 129.809 46.8204L130.065 46.73L133.075 41.6986Z" fill="#282A39"/>
<path d="M133.162 55.227L131.284 51.655L137.274 48.019L139.152 51.5909L138.111 52.2226L136.925 49.9658L135.61 50.7641L136.714 52.864L135.673 53.4957L134.569 51.3958L133.024 52.3334L134.211 54.5903L133.162 55.227Z" fill="#282A39"/>
<path d="M136.032 62.1403L137.365 60.9789L136.432 58.6009L134.727 58.8164L134.142 57.3263L141.454 56.7243L142.118 58.4152L136.617 63.6304L136.032 62.1403ZM138.371 60.1344L139.669 58.9889C139.757 58.9143 139.867 58.8167 140.002 58.6963C140.14 58.5775 140.28 58.4565 140.42 58.3334C140.564 58.212 140.69 58.1093 140.798 58.0255C140.667 58.0499 140.502 58.0755 140.304 58.1024C140.109 58.131 139.924 58.1571 139.748 58.1807C139.572 58.2043 139.447 58.2209 139.372 58.2304L137.703 58.4346L138.371 60.1344Z" fill="#282A39"/>
<path d="M144.197 64.9435C144.37 65.5554 144.44 66.0834 144.406 66.5277C144.373 66.975 144.237 67.3436 143.997 67.6334C143.757 67.9233 143.412 68.1415 142.963 68.2882C142.659 68.3873 142.377 68.4156 142.116 68.3731C141.855 68.3306 141.619 68.2398 141.407 68.1007C141.195 67.9616 141.008 67.7977 140.845 67.609L138.503 70.5393L138.054 68.9527L140.156 66.509L139.941 65.748L137.384 66.582L136.98 65.1522L143.642 62.9787L144.197 64.9435ZM143.011 65.2196L142.889 64.7861L141.089 65.3733L141.219 65.8345C141.353 66.3081 141.526 66.621 141.738 66.7734C141.955 66.9279 142.215 66.9556 142.518 66.8565C142.834 66.7534 143.028 66.5694 143.099 66.3044C143.171 66.0424 143.142 65.6809 143.011 65.2196Z" fill="#282A39"/>
<path d="M141.116 75.9241C140.71 76.0125 140.339 75.9904 140.002 75.8579C139.665 75.7254 139.379 75.4868 139.145 75.1422C138.912 74.8008 138.744 74.3601 138.642 73.82C138.597 73.5814 138.569 73.344 138.557 73.108C138.545 72.8751 138.549 72.6471 138.569 72.4238C138.592 72.2029 138.631 71.9885 138.686 71.7803L140.035 71.4866C139.953 71.8444 139.888 72.2118 139.838 72.5886C139.789 72.9654 139.797 73.3265 139.862 73.6719C139.907 73.9105 139.975 74.0953 140.064 74.2261C140.155 74.3601 140.261 74.4481 140.382 74.4903C140.504 74.5324 140.635 74.5382 140.776 74.5076C140.947 74.4702 141.083 74.3801 141.183 74.2374C141.283 74.0947 141.367 73.9098 141.434 73.6826C141.503 73.4585 141.574 73.206 141.647 72.9252C141.692 72.7487 141.75 72.5548 141.82 72.3432C141.894 72.131 141.993 71.9232 142.117 71.7196C142.241 71.5161 142.404 71.3352 142.605 71.177C142.809 71.0213 143.068 70.9094 143.38 70.8414C143.789 70.7524 144.156 70.7704 144.482 70.8956C144.808 71.0207 145.081 71.2409 145.299 71.5561C145.522 71.8738 145.678 72.2712 145.768 72.7485C145.836 73.1065 145.858 73.4563 145.834 73.7981C145.815 74.1423 145.76 74.5088 145.671 74.8976L144.454 74.6725C144.522 74.3275 144.567 74.0219 144.588 73.7557C144.612 73.4889 144.6 73.2252 144.551 72.9646C144.517 72.7825 144.458 72.6335 144.374 72.5177C144.293 72.4012 144.194 72.3215 144.075 72.2787C143.96 72.2352 143.833 72.2284 143.696 72.2583C143.534 72.2937 143.405 72.3707 143.311 72.4894C143.22 72.6105 143.141 72.7781 143.074 72.9921C143.008 73.2092 142.933 73.4771 142.85 73.7959C142.751 74.1836 142.634 74.5212 142.5 74.8087C142.369 75.0987 142.195 75.3377 141.977 75.5257C141.762 75.7131 141.475 75.8459 141.116 75.9241Z" fill="#282A39"/>
<path d="M138.722 88.86L139.006 87.4064L142.961 88.2979C143.07 88.3225 143.204 88.3543 143.362 88.3933C143.524 88.4329 143.688 88.4749 143.855 88.5191C144.025 88.564 144.178 88.605 144.314 88.6422C144.281 88.5986 144.224 88.5122 144.145 88.3831C144.069 88.2578 144.001 88.141 143.94 88.0324L143.464 87.0999L144.47 86.595L145.791 89.2058L145.558 90.4007L138.722 88.86Z" fill="#282A39"/>
<path d="M140.833 93.2139C141.213 93.3481 141.58 93.5081 141.933 93.6941C142.289 93.8842 142.61 94.1076 142.895 94.3642C143.183 94.6219 143.415 94.9223 143.591 95.2653C143.769 95.6094 143.871 96.0026 143.896 96.4447C143.923 96.888 143.852 97.3877 143.682 97.9437C143.642 98.0751 143.589 98.2257 143.524 98.3956C143.46 98.5696 143.399 98.7104 143.339 98.818L142.223 98.4235C142.288 98.3108 142.349 98.1869 142.407 98.0517C142.467 97.9206 142.518 97.7863 142.56 97.6488C142.731 97.0927 142.775 96.6311 142.694 96.2638C142.612 95.8995 142.435 95.5999 142.163 95.365C141.893 95.1342 141.557 94.9356 141.153 94.7694L141.135 94.829C141.257 94.9667 141.355 95.12 141.43 95.2888C141.504 95.4606 141.546 95.6514 141.555 95.8612C141.567 96.0721 141.535 96.3028 141.458 96.5533C141.339 96.9444 141.152 97.2543 140.898 97.4829C140.648 97.7126 140.343 97.8505 139.985 97.8966C139.627 97.9427 139.225 97.887 138.78 97.7294C138.304 97.5611 137.922 97.3231 137.636 97.0153C137.35 96.7076 137.167 96.3501 137.088 95.943C137.011 95.5399 137.044 95.1047 137.187 94.6372C137.292 94.295 137.447 93.996 137.652 93.7401C137.861 93.4853 138.118 93.2884 138.424 93.1495C138.73 93.0106 139.084 92.9424 139.483 92.9449C139.886 92.9485 140.336 93.0382 140.833 93.2139ZM138.312 95.0043C138.227 95.2823 138.251 95.5414 138.384 95.7816C138.518 96.0218 138.783 96.2121 139.181 96.3527C139.503 96.4667 139.78 96.4797 140.01 96.3919C140.243 96.3082 140.406 96.1136 140.5 95.8081C140.563 95.6004 140.573 95.4005 140.528 95.2086C140.485 95.0209 140.406 94.8592 140.291 94.7236C140.179 94.5891 140.049 94.4957 139.901 94.4435C139.747 94.3892 139.589 94.3568 139.425 94.3463C139.261 94.3359 139.104 94.3516 138.955 94.3935C138.805 94.4354 138.673 94.5056 138.56 94.6043C138.445 94.706 138.363 94.8393 138.312 95.0043Z" fill="#282A39"/>
<path d="M134.137 107.712C133.775 107.509 133.505 107.241 133.325 106.91C133.146 106.579 133.068 106.199 133.093 105.77C133.115 105.344 133.247 104.884 133.488 104.389C133.594 104.171 133.712 103.965 133.842 103.771C133.97 103.579 134.108 103.402 134.255 103.24C134.403 103.081 134.559 102.939 134.724 102.812L135.927 103.488C135.654 103.715 135.387 103.96 135.127 104.224C134.868 104.488 134.661 104.778 134.507 105.094C134.401 105.312 134.343 105.503 134.335 105.666C134.325 105.833 134.354 105.973 134.422 106.089C134.49 106.204 134.587 106.296 134.712 106.367C134.866 106.453 135.022 106.473 135.183 106.428C135.343 106.383 135.516 106.293 135.702 106.16C135.886 106.029 136.089 105.878 136.311 105.706C136.449 105.597 136.607 105.483 136.786 105.364C136.967 105.246 137.165 105.149 137.38 105.072C137.595 104.995 137.826 104.962 138.073 104.973C138.321 104.988 138.584 105.073 138.863 105.23C139.228 105.435 139.498 105.696 139.673 106.014C139.848 106.332 139.926 106.689 139.908 107.085C139.89 107.485 139.775 107.903 139.563 108.34C139.403 108.667 139.214 108.958 138.995 109.212C138.777 109.47 138.52 109.722 138.222 109.968L137.425 108.972C137.68 108.746 137.895 108.535 138.068 108.34C138.244 108.146 138.39 107.93 138.506 107.691C138.587 107.524 138.63 107.367 138.634 107.22C138.641 107.074 138.612 106.944 138.547 106.831C138.484 106.719 138.391 106.628 138.269 106.559C138.124 106.478 137.98 106.452 137.838 106.482C137.697 106.516 137.538 106.595 137.361 106.719C137.183 106.845 136.968 107.006 136.716 107.202C136.412 107.441 136.124 107.628 135.852 107.764C135.581 107.905 135.307 107.976 135.03 107.978C134.755 107.981 134.458 107.892 134.137 107.712Z" fill="#282A39"/>
<path d="M134.158 117.561L130.485 114.903C130.094 114.62 129.797 114.273 129.595 113.863C129.394 113.458 129.316 113.006 129.362 112.507C129.405 112.012 129.6 111.488 129.947 110.935C130.439 110.15 131.005 109.691 131.647 109.556C132.288 109.422 132.924 109.584 133.556 110.041L137.213 112.688L136.426 113.943L132.951 111.428C132.483 111.089 132.091 110.951 131.777 111.014C131.462 111.078 131.182 111.306 130.936 111.699C130.763 111.975 130.668 112.231 130.651 112.467C130.633 112.706 130.693 112.934 130.831 113.152C130.97 113.37 131.185 113.585 131.477 113.797L134.944 116.306L134.158 117.561Z" fill="#282A39"/>
<path d="M129.712 121.545C129.889 121.322 130.004 121.087 130.059 120.838C130.113 120.595 130.111 120.344 130.051 120.086C129.989 119.831 129.873 119.574 129.704 119.315C129.535 119.057 129.314 118.803 129.043 118.555C128.678 118.221 128.328 117.983 127.993 117.841C127.659 117.704 127.343 117.674 127.045 117.752C126.75 117.831 126.475 118.032 126.221 118.352C126.045 118.575 125.892 118.82 125.762 119.086C125.631 119.354 125.505 119.66 125.384 120.003L124.464 119.162C124.562 118.832 124.684 118.532 124.831 118.26C124.975 117.985 125.163 117.702 125.395 117.409C125.844 116.843 126.322 116.477 126.831 116.312C127.341 116.152 127.863 116.165 128.398 116.352C128.935 116.541 129.469 116.878 130 117.363C130.391 117.721 130.705 118.106 130.941 118.516C131.177 118.926 131.328 119.349 131.393 119.785C131.459 120.221 131.43 120.658 131.305 121.097C131.181 121.536 130.954 121.964 130.625 122.38C130.408 122.653 130.159 122.895 129.877 123.108C129.595 123.325 129.298 123.507 128.986 123.654L128.393 122.463C128.647 122.342 128.891 122.209 129.124 122.064C129.357 121.918 129.553 121.745 129.712 121.545Z" fill="#282A39"/>
<path d="M125.106 126.673C125.304 126.469 125.442 126.246 125.521 126.005C125.6 125.767 125.622 125.518 125.588 125.255C125.552 124.995 125.463 124.727 125.32 124.453C125.178 124.179 124.984 123.905 124.739 123.631C124.409 123.262 124.085 122.99 123.766 122.815C123.447 122.645 123.136 122.583 122.832 122.631C122.531 122.681 122.238 122.853 121.953 123.147C121.755 123.351 121.578 123.579 121.423 123.831C121.266 124.085 121.11 124.377 120.955 124.706L120.124 123.777C120.255 123.459 120.406 123.172 120.579 122.916C120.75 122.657 120.965 122.394 121.225 122.125C121.728 121.607 122.241 121.29 122.763 121.177C123.286 121.068 123.804 121.133 124.317 121.373C124.833 121.615 125.33 122.004 125.809 122.54C126.163 122.935 126.437 123.349 126.63 123.781C126.824 124.213 126.932 124.649 126.954 125.089C126.975 125.53 126.903 125.962 126.735 126.387C126.568 126.812 126.299 127.214 125.93 127.595C125.688 127.845 125.416 128.062 125.114 128.246C124.812 128.434 124.498 128.585 124.174 128.701L123.702 127.456C123.968 127.361 124.223 127.252 124.47 127.131C124.716 127.01 124.928 126.857 125.106 126.673Z" fill="#282A39"/>
<path d="M115.762 127.215L118.865 124.636L122.959 130.323L119.855 132.902L119.144 131.914L121.105 130.284L120.206 129.036L118.382 130.552L117.67 129.564L119.495 128.047L118.44 126.581L116.478 128.211L115.762 127.215Z" fill="#282A39"/>
<path d="M110.886 133.049C110.679 132.689 110.584 132.32 110.599 131.943C110.614 131.565 110.741 131.198 110.981 130.84C111.218 130.484 111.565 130.155 112.023 129.851C112.226 129.717 112.432 129.599 112.642 129.498C112.85 129.399 113.058 129.316 113.267 129.251C113.474 129.19 113.681 129.146 113.887 129.121L114.574 130.318C114.224 130.374 113.871 130.45 113.513 130.545C113.156 130.64 112.831 130.785 112.538 130.979C112.336 131.113 112.189 131.248 112.098 131.385C112.005 131.523 111.958 131.659 111.958 131.794C111.958 131.928 111.993 132.057 112.065 132.182C112.152 132.334 112.276 132.432 112.437 132.474C112.598 132.517 112.792 132.528 113.019 132.508C113.243 132.489 113.495 132.462 113.772 132.427C113.946 132.404 114.14 132.386 114.354 132.375C114.57 132.366 114.789 132.383 115.012 132.426C115.236 132.469 115.451 132.558 115.657 132.693C115.862 132.833 116.044 133.041 116.203 133.318C116.411 133.681 116.51 134.045 116.498 134.408C116.486 134.772 116.371 135.12 116.153 135.451C115.935 135.788 115.623 136.09 115.218 136.358C114.914 136.559 114.604 136.713 114.287 136.82C113.968 136.932 113.619 137.018 113.238 137.079L113.063 135.813C113.397 135.748 113.688 135.675 113.936 135.595C114.186 135.518 114.421 135.406 114.642 135.259C114.797 135.157 114.914 135.043 114.992 134.918C115.073 134.796 115.114 134.669 115.116 134.538C115.12 134.409 115.086 134.284 115.016 134.162C114.934 134.018 114.824 133.923 114.686 133.876C114.548 133.834 114.372 133.82 114.157 133.837C113.939 133.855 113.673 133.884 113.358 133.924C112.975 133.975 112.632 133.99 112.33 133.969C112.026 133.952 111.755 133.873 111.516 133.733C111.279 133.596 111.069 133.368 110.886 133.049Z" fill="#282A39"/>
<path d="M105.449 136.037C105.276 135.659 105.216 135.283 105.267 134.91C105.318 134.537 105.48 134.185 105.753 133.854C106.024 133.525 106.402 133.232 106.889 132.976C107.104 132.863 107.321 132.767 107.541 132.687C107.758 132.609 107.973 132.548 108.188 132.504C108.401 132.464 108.612 132.441 108.82 132.436L109.392 133.693C109.037 133.714 108.677 133.753 108.311 133.812C107.945 133.871 107.607 133.983 107.296 134.146C107.081 134.259 106.921 134.379 106.818 134.506C106.711 134.634 106.652 134.764 106.639 134.897C106.626 135.03 106.649 135.162 106.708 135.293C106.781 135.453 106.896 135.562 107.052 135.62C107.208 135.679 107.401 135.709 107.63 135.711C107.856 135.715 108.109 135.713 108.39 135.706C108.566 135.7 108.761 135.702 108.976 135.712C109.192 135.724 109.41 135.763 109.629 135.828C109.848 135.893 110.054 136.003 110.247 136.157C110.438 136.316 110.6 136.541 110.733 136.832C110.906 137.213 110.97 137.583 110.923 137.943C110.877 138.302 110.729 138.636 110.48 138.943C110.229 139.255 109.889 139.524 109.459 139.75C109.137 139.92 108.812 140.042 108.485 140.117C108.156 140.196 107.799 140.247 107.413 140.269L107.359 138.995C107.699 138.964 107.996 138.921 108.252 138.866C108.508 138.814 108.754 138.726 108.989 138.603C109.153 138.517 109.28 138.415 109.371 138.299C109.463 138.186 109.517 138.064 109.531 137.934C109.547 137.807 109.525 137.679 109.467 137.551C109.398 137.4 109.297 137.294 109.165 137.234C109.031 137.179 108.856 137.148 108.64 137.143C108.42 137.139 108.152 137.142 107.833 137.151C107.446 137.163 107.103 137.144 106.802 137.093C106.501 137.046 106.237 136.941 106.012 136.778C105.789 136.618 105.601 136.371 105.449 136.037Z" fill="#282A39"/>
<path d="M96.1896 139.593C96.0754 139.193 96.0717 138.815 96.1786 138.457C96.2854 138.099 96.4996 137.779 96.8211 137.498C97.1395 137.218 97.5597 136.992 98.0816 136.82C98.3122 136.744 98.5427 136.685 98.773 136.642C99.0002 136.601 99.2238 136.576 99.4438 136.567C99.6617 136.563 99.8743 136.575 100.082 136.604L100.461 137.931C100.105 137.894 99.7412 137.874 99.3688 137.873C98.9965 137.871 98.6434 137.926 98.3096 138.036C98.079 138.112 97.9027 138.204 97.7807 138.311C97.6556 138.42 97.5766 138.538 97.5436 138.667C97.5107 138.795 97.5139 138.929 97.5535 139.067C97.6018 139.236 97.6992 139.362 97.8457 139.445C97.9922 139.527 98.179 139.589 98.4061 139.628C98.6302 139.668 98.8822 139.708 99.1623 139.746C99.3381 139.769 99.532 139.803 99.7439 139.847C99.9567 139.894 100.167 139.968 100.375 140.068C100.582 140.167 100.771 140.308 100.939 140.491C101.106 140.679 101.233 140.926 101.321 141.233C101.436 141.635 101.443 142.01 101.343 142.355C101.242 142.701 101.045 143.005 100.751 143.267C100.455 143.532 100.077 143.741 99.6156 143.894C99.2697 144.008 98.9286 144.075 98.5923 144.095C98.2539 144.119 97.8913 144.111 97.5045 144.071L97.6422 142.81C97.9847 142.835 98.287 142.841 98.549 142.828C98.812 142.819 99.0694 142.773 99.3212 142.69C99.4972 142.632 99.6391 142.553 99.7468 142.453C99.8554 142.357 99.9266 142.246 99.9605 142.121C99.9952 141.998 99.9933 141.869 99.9546 141.734C99.909 141.574 99.8248 141.454 99.7021 141.374C99.5773 141.297 99.4079 141.239 99.1938 141.199C98.9767 141.159 98.7093 141.118 98.3915 141.075C98.0051 141.024 97.6665 140.949 97.3759 140.85C97.0831 140.755 96.8372 140.61 96.6382 140.413C96.4401 140.22 96.2906 139.946 96.1896 139.593Z" fill="#282A39"/>
<path d="M89.5312 146.261L88.7452 141.795C88.6615 141.32 88.6908 140.869 88.833 140.443C88.9726 140.02 89.2342 139.654 89.6175 139.344C89.9978 139.036 90.5073 138.816 91.1461 138.687C92.0542 138.502 92.7872 138.594 93.3452 138.963C93.9031 139.332 94.2497 139.901 94.3848 140.669L95.1676 145.115L93.7162 145.41L92.9725 141.185C92.8722 140.616 92.686 140.24 92.4139 140.057C92.1417 139.874 91.7786 139.829 91.3246 139.922C91.0052 139.986 90.7566 140.094 90.5787 140.244C90.3977 140.395 90.2804 140.595 90.2269 140.844C90.1734 141.093 90.178 141.395 90.2405 141.75L90.9826 145.966L89.5312 146.261Z" fill="#282A39"/>
<path d="M83.8975 145.646C84.181 145.624 84.4287 145.548 84.6407 145.418C84.8498 145.293 85.022 145.12 85.1573 144.901C85.2894 144.682 85.3835 144.423 85.4396 144.124C85.4956 143.824 85.5109 143.491 85.4855 143.125C85.4512 142.63 85.3613 142.213 85.2159 141.872C85.0676 141.535 84.858 141.284 84.5871 141.12C84.3165 140.959 83.9774 140.894 83.5697 140.927C83.2862 140.95 83.0049 141.004 82.7259 141.091C82.4437 141.178 82.1394 141.293 81.8132 141.438L81.7268 140.195C82.0269 140.043 82.3248 139.927 82.6204 139.849C82.9158 139.768 83.2499 139.712 83.6225 139.682C84.3424 139.625 84.9451 139.725 85.4307 139.984C85.9133 140.247 86.2847 140.637 86.5449 141.155C86.8053 141.676 86.9604 142.295 87.0102 143.012C87.047 143.541 87.009 144.031 86.8962 144.483C86.7834 144.934 86.5997 145.332 86.3449 145.676C86.0902 146.02 85.7651 146.296 85.3696 146.504C84.974 146.712 84.5119 146.838 83.9832 146.88C83.636 146.908 83.2858 146.891 82.9324 146.83C82.576 146.772 82.2333 146.679 81.9042 146.551L82.2982 145.308C82.568 145.412 82.8383 145.499 83.1091 145.57C83.3799 145.641 83.6427 145.667 83.8975 145.646Z" fill="#282A39"/>
<path d="M77.2744 145.687C77.5587 145.695 77.8123 145.646 78.0354 145.54C78.2552 145.438 78.4426 145.285 78.5977 145.081C78.7496 144.878 78.8674 144.63 78.9511 144.338C79.0348 144.047 79.0811 143.717 79.0899 143.35C79.1018 142.855 79.0512 142.43 78.9383 142.075C78.822 141.723 78.6368 141.451 78.3825 141.259C78.1281 141.07 77.7965 140.969 77.3877 140.958C77.1034 140.95 76.8184 140.974 76.5326 141.03C76.2436 141.086 75.93 141.169 75.5918 141.278L75.6216 140.032C75.9345 139.912 76.2417 139.83 76.5433 139.784C76.8449 139.735 77.1825 139.715 77.5563 139.726C78.2781 139.746 78.8687 139.911 79.3279 140.221C79.7838 140.534 80.1172 140.962 80.3279 141.504C80.5385 142.05 80.6353 142.683 80.618 143.402C80.6053 143.932 80.5218 144.415 80.3675 144.852C80.2132 145.289 79.9933 145.665 79.7077 145.98C79.4221 146.295 79.0727 146.535 78.6597 146.699C78.2466 146.863 77.775 146.938 77.2448 146.923C76.8966 146.914 76.5495 146.86 76.2035 146.76C75.8542 146.664 75.5217 146.535 75.206 146.373L75.714 145.179C75.973 145.311 76.2339 145.427 76.4968 145.527C76.7597 145.627 77.0189 145.68 77.2744 145.687Z" fill="#282A39"/>
<path d="M70.3255 139.021L74.3203 139.594L73.4561 146.548L69.4613 145.975L69.6115 144.767L72.1355 145.129L72.3252 143.602L69.9768 143.265L70.1269 142.057L72.4754 142.394L72.6982 140.601L70.1742 140.238L70.3255 139.021Z" fill="#282A39"/>
<path d="M63.0889 139.268C63.1805 138.863 63.3576 138.537 63.62 138.288C63.8824 138.04 64.219 137.883 64.6298 137.819C65.0374 137.754 65.5071 137.791 66.0389 137.93C66.2739 137.991 66.5007 138.067 66.7193 138.157C66.9349 138.246 67.1395 138.347 67.3333 138.461C67.5232 138.576 67.7007 138.703 67.8658 138.842L67.5612 140.189C67.2721 139.961 66.9675 139.745 66.6473 139.539C66.3271 139.333 65.997 139.186 65.6569 139.097C65.422 139.036 65.2263 139.018 65.07 139.043C64.9106 139.067 64.7861 139.126 64.6965 139.218C64.6069 139.31 64.5462 139.426 64.5145 139.566C64.4758 139.738 64.4998 139.899 64.5867 140.051C64.6736 140.202 64.8056 140.357 64.9825 140.515C65.1564 140.673 65.3549 140.845 65.5778 141.032C65.7185 141.148 65.8697 141.283 66.0312 141.438C66.192 141.595 66.3383 141.774 66.47 141.973C66.6017 142.173 66.6967 142.397 66.7548 142.647C66.8092 142.898 66.8011 143.18 66.7306 143.492C66.6383 143.9 66.4666 144.225 66.2155 144.466C65.9645 144.708 65.6501 144.86 65.2724 144.923C64.8908 144.989 64.4651 144.96 63.9952 144.837C63.6427 144.745 63.3168 144.616 63.0174 144.448C62.7142 144.283 62.4056 144.077 62.0914 143.83L62.81 142.825C63.0934 143.034 63.351 143.205 63.5828 143.338C63.8139 143.475 64.0578 143.576 64.3144 143.643C64.4937 143.69 64.6534 143.7 64.7936 143.674C64.933 143.651 65.0472 143.595 65.1361 143.506C65.2243 143.42 65.2839 143.309 65.3149 143.172C65.3515 143.01 65.3362 142.86 65.2688 142.724C65.1976 142.59 65.0794 142.447 64.9141 142.295C64.7456 142.142 64.5347 141.96 64.2813 141.748C63.9724 141.493 63.7163 141.243 63.5129 140.998C63.3058 140.756 63.1632 140.496 63.0853 140.218C63.0066 139.943 63.0078 139.627 63.0889 139.268Z" fill="#282A39"/>
<path d="M57.3508 137.15C57.4792 136.754 57.685 136.446 57.9683 136.225C58.2516 136.004 58.5999 135.883 59.0133 135.861C59.4236 135.837 59.8861 135.922 60.4007 136.115C60.628 136.2 60.846 136.299 61.0545 136.412C61.26 136.523 61.4536 136.645 61.6353 136.778C61.813 136.913 61.9773 137.058 62.1282 137.213L61.7015 138.526C61.4358 138.269 61.1537 138.022 60.8552 137.784C60.5567 137.546 60.2428 137.365 59.9138 137.242C59.6864 137.156 59.494 137.118 59.3366 137.127C59.1763 137.135 59.0474 137.181 58.95 137.264C58.8526 137.346 58.7817 137.456 58.7373 137.593C58.683 137.76 58.6919 137.924 58.7641 138.084C58.8363 138.244 58.9528 138.412 59.1137 138.588C59.2716 138.763 59.4524 138.956 59.6562 139.165C59.7851 139.295 59.9225 139.446 60.0684 139.616C60.2134 139.79 60.3419 139.983 60.4541 140.196C60.5663 140.408 60.6397 140.642 60.6743 140.897C60.7049 141.154 60.6708 141.434 60.572 141.738C60.4427 142.136 60.2423 142.443 59.971 142.658C59.6996 142.874 59.3737 142.993 58.9933 143.018C58.6088 143.044 58.1892 142.972 57.7345 142.801C57.3934 142.673 57.0822 142.51 56.8007 142.313C56.5152 142.117 56.2281 141.88 55.9395 141.601L56.7452 140.671C57.0069 140.909 57.2465 141.106 57.4641 141.263C57.6808 141.422 57.9132 141.549 58.1615 141.642C58.3351 141.707 58.4925 141.734 58.6339 141.722C58.7744 141.713 58.8928 141.669 58.9892 141.589C59.0846 141.513 59.1541 141.408 59.1975 141.274C59.2489 141.116 59.2474 140.965 59.1932 140.822C59.1351 140.681 59.031 140.526 58.8811 140.357C58.7282 140.187 58.5359 139.984 58.3041 139.747C58.0214 139.46 57.7905 139.184 57.6114 138.92C57.4283 138.657 57.311 138.382 57.2594 138.097C57.2068 137.815 57.2373 137.499 57.3508 137.15Z" fill="#282A39"/>
<path d="M55.0049 133.847L56.3202 134.485L53.6064 140.945L49.9924 139.193L50.4639 138.07L52.7625 139.185L53.4623 137.519L51.3233 136.482L51.7929 135.364L53.932 136.401L55.0049 133.847Z" fill="#282A39"/>
<path d="M43.8686 135.424L46.0224 131.435C46.2516 131.01 46.5496 130.683 46.9165 130.453C47.2791 130.224 47.6973 130.124 48.1712 130.153C48.6424 130.179 49.1546 130.365 49.7078 130.71C50.4942 131.2 50.9812 131.782 51.1688 132.455C51.3564 133.128 51.265 133.807 50.8946 134.493L48.75 138.466L47.4931 137.683L49.5307 133.908C49.8054 133.399 49.8978 132.98 49.8079 132.649C49.7181 132.319 49.4765 132.031 49.0833 131.786C48.8067 131.614 48.5564 131.524 48.3324 131.516C48.1057 131.506 47.8963 131.578 47.7042 131.733C47.512 131.887 47.3302 132.124 47.1587 132.441L45.1256 136.208L43.8686 135.424Z" fill="#282A39"/>
<path d="M45.6705 127.98L41.7904 133.815L40.6118 132.911L43.8125 128.097L41.558 126.367L42.2374 125.345L45.6705 127.98Z" fill="#282A39"/>
<path d="M41.4105 124.195L37.167 129.771L36.0507 128.791L39.5512 124.191L37.4159 122.315L38.1589 121.339L41.4105 124.195Z" fill="#282A39"/>
<path d="M34.1715 122.913L31.2224 123.99L30.1178 122.832L34.6002 121.347L36.4343 119.328L37.4529 120.397L35.651 122.38L34.3442 127.265L33.233 126.1L34.1715 122.913Z" fill="#282A39"/>
<path d="M27.1743 118.516L26.2797 117.189L28.0941 114.499C28.1519 114.413 28.2136 114.331 28.2793 114.252C28.345 114.172 28.415 114.094 28.4893 114.016C28.5636 113.938 28.6435 113.859 28.7289 113.781L28.7128 113.757C28.5659 113.847 28.4243 113.925 28.2879 113.991C28.1497 114.054 28.0083 114.109 27.8637 114.157L24.9298 115.185L24.0539 113.886L30.0912 112.055C30.4606 111.941 30.8039 111.9 31.1214 111.932C31.4413 111.961 31.7308 112.057 31.9898 112.219C32.2471 112.379 32.4713 112.6 32.6624 112.884C32.7552 113.021 32.828 113.147 32.8807 113.259C32.936 113.369 32.9801 113.466 33.0132 113.55L32.0977 114.262C32.0728 114.196 32.0369 114.117 31.9898 114.025C31.9428 113.932 31.888 113.839 31.8255 113.747C31.7112 113.577 31.5789 113.458 31.4287 113.389C31.2785 113.32 31.1177 113.29 30.9463 113.298C30.7775 113.304 30.6089 113.336 30.4405 113.394L30.1843 113.485L27.1743 118.516Z" fill="#282A39"/>
<path d="M27.0871 104.988L28.9653 108.56L22.9752 112.196L21.097 108.624L22.1377 107.992L23.3244 110.249L24.6396 109.451L23.5354 107.351L24.5761 106.719L25.6803 108.819L27.2249 107.881L26.0382 105.624L27.0871 104.988Z" fill="#282A39"/>
<path d="M24.2176 98.0745L22.884 99.2358L23.8174 101.614L25.5223 101.398L26.1072 102.888L18.7948 103.49L18.1311 101.799L23.6326 96.5843L24.2176 98.0745ZM21.8785 100.08L20.5798 101.226C20.4925 101.3 20.3817 101.398 20.2473 101.518C20.1088 101.637 19.9695 101.758 19.8292 101.881C19.6849 102.003 19.559 102.105 19.4513 102.189C19.5823 102.165 19.7471 102.139 19.9456 102.112C20.1401 102.084 20.3253 102.058 20.5011 102.034C20.6769 102.01 20.8024 101.994 20.8775 101.984L22.5457 101.78L21.8785 100.08Z" fill="#282A39"/>
<path d="M16.0519 95.2712C15.8789 94.6593 15.8093 94.1312 15.843 93.687C15.8758 93.2397 16.0122 92.8711 16.2521 92.5812C16.492 92.2914 16.8368 92.0731 17.2864 91.9264C17.5901 91.8273 17.8724 91.799 18.1333 91.8415C18.3941 91.884 18.6305 91.9749 18.8423 92.114C19.0542 92.2531 19.2415 92.417 19.4043 92.6056L21.7463 89.6753L22.1947 91.262L20.0935 93.7057L20.3085 94.4667L22.8648 93.6327L23.2689 95.0625L16.6072 97.236L16.0519 95.2712ZM17.2379 94.995L17.3605 95.4286L19.1603 94.8413L19.0299 94.3801C18.8961 93.9066 18.723 93.5936 18.5108 93.4412C18.2946 93.2868 18.0346 93.2591 17.7308 93.3582C17.4149 93.4613 17.2214 93.6453 17.1503 93.9103C17.0784 94.1722 17.1076 94.5338 17.2379 94.995Z" fill="#282A39"/>
<path d="M19.1329 84.2906C19.5388 84.2022 19.9103 84.2242 20.2473 84.3568C20.5844 84.4893 20.8699 84.7279 21.1039 85.0724C21.3374 85.4139 21.505 85.8546 21.6069 86.3947C21.6519 86.6333 21.6805 86.8706 21.6925 87.1066C21.7039 87.3395 21.6998 87.5676 21.6802 87.7909C21.6568 88.0117 21.6177 88.2262 21.5627 88.4343L20.2139 88.7281C20.2959 88.3702 20.3615 88.0029 20.4107 87.6261C20.4599 87.2492 20.4519 86.8881 20.3867 86.5428C20.3417 86.3041 20.2743 86.1194 20.1846 85.9885C20.0943 85.8546 19.9883 85.7665 19.8666 85.7244C19.7449 85.6822 19.6138 85.6765 19.4733 85.7071C19.3016 85.7445 19.1658 85.8345 19.066 85.9772C18.9661 86.1199 18.8824 86.3049 18.8147 86.5321C18.7465 86.7562 18.6755 87.0086 18.6017 87.2895C18.557 87.4659 18.4993 87.6599 18.4287 87.8714C18.355 88.0836 18.2561 88.2915 18.132 88.495C18.0078 88.6986 17.8453 88.8795 17.6444 89.0376C17.4397 89.1934 17.1813 89.3052 16.8691 89.3732C16.4601 89.4623 16.0926 89.4443 15.7667 89.3191C15.4408 89.1939 15.1685 88.9738 14.9498 88.6586C14.7273 88.3409 14.5711 87.9434 14.481 87.4662C14.4135 87.1082 14.3914 86.7583 14.4147 86.4166C14.4342 86.0723 14.4886 85.7058 14.5778 85.317L15.7953 85.5422C15.7271 85.8872 15.6823 86.1928 15.6611 86.4589C15.6366 86.7258 15.649 86.9895 15.6982 87.2501C15.7325 87.4322 15.7915 87.5812 15.8751 87.697C15.9556 87.8135 16.0552 87.8931 16.1737 87.936C16.2892 87.9795 16.4156 87.9862 16.553 87.9563C16.7154 87.921 16.8439 87.844 16.9385 87.7253C17.0294 87.6041 17.1083 87.4366 17.1752 87.2226C17.2415 87.0055 17.3161 86.7375 17.3989 86.4187C17.4981 86.031 17.6148 85.6934 17.749 85.4059C17.8796 85.116 18.0539 84.877 18.272 84.6889C18.4869 84.5016 18.7739 84.3688 19.1329 84.2906Z" fill="#282A39"/>
</svg>
